<?xml version="1.0" encoding="utf-8"?>
<!-- Generator: Adobe Illustrator 25.0.0, SVG Export Plug-In . SVG Version: 6.00 Build 0)  -->
<svg version="1.1" id="redefine-avatar" xmlns="http://www.w3.org/2000/svg" xmlns:xlink="http://www.w3.org/1999/xlink" x="0px" y="0px"
	 viewBox="0 0 128 128" style="enable-background:new 0 0 128 128;" xml:space="preserve">
<style type="text/css">
	.st0{fill:#311F1F;}
</style>
<g>
	<g>
		<path class="st0" d="M110.67,37.22c-0.31,14.84-1.81,27.49-6.02,39.7c-0.91,2.62-1.88,5.24-3.09,7.74
			c-1.01,2.09-0.54,3.97,0.55,5.62c1.4,2.12,3.04,4.12,4.81,5.94c3.99,4.12,8.2,8.03,12.17,12.18c3.89,4.07,5.54,8.95,4.04,14.51
			c-0.99,3.67-1.17,3.71-5.79,4.15c-3.14,0.3-6.13-0.57-8.72-2.08c-3.31-1.94-6.16-1.39-9.24,0.27c-2.41,1.3-4.96,2.45-7.78,2.22
			c-2.24-0.18-4.51-0.5-6.67-1.09c-3.33-0.91-5.06-3.73-5.04-7.79c0.02-3.07-0.13-6.11-1.35-8.99c-0.1-0.24-0.6-0.51-0.85-0.46
			c-10.56,2.05-20.42,0.55-29.26-5.84c-1.38-1-2.49-2.41-3.6-3.74c-0.49-0.58-0.85-0.68-1.54-0.49c-5.72,1.56-11.44,3.13-17.18,4.59
			c-3.91,1-7.83,2.12-11.82,2.65c-3.5,0.47-6.89-0.32-9.22-3.49c-1.18-1.6-0.97-3.89,0.48-5.28c2.17-2.08,4.28-4.22,6.41-6.34
			c0.13-0.13,0.26-0.32,0.3-0.5c0.89-3.87,3.13-6.98,5.62-9.94c5.31-6.31,7.21-13.88,7.6-21.83c0.42-8.5,1.37-16.89,4.12-24.95
			c2.71-7.94,6.44-15.41,12.08-21.73c3.43-3.85,7.22-7.35,11.88-9.72c4.7-2.39,9.67-2.41,14.68-1.33c2,0.43,3.93,1.15,5.9,1.72
			c0.12,0.04,0.3,0.05,0.4-0.01c3.76-2.34,7.71-1.73,11.67-0.7C90.76,3.4,94.46,6,97.86,9.15c5.26,4.88,9.45,10.48,11.13,17.54
			C109.97,30.77,110.33,35,110.67,37.22z M101.03,39.38c-1.72-2.99-2.04-6.15-2.13-9.28c-0.08-2.84-1.35-4.82-3.74-6.04
			c-1.42-0.72-3.04-1.12-4.62-1.45c-1.19-0.25-2.02,0.58-2.72,1.47c-0.05,0.06-0.43-0.03-0.57-0.15c-1.44-1.31-2.72-2.84-4.32-3.91
			c-2.56-1.71-5.61-2.76-8.44-1.23c-3.07,1.66-5.93,3.83-8.54,6.16C60,30.28,54.24,35.83,48.45,41.33
			c-0.95,0.91-1.56,2.04-1.42,3.55c0.2,2.13-0.1,4.26-1.51,5.99c-1.78,2.2-1.69,3,0.42,4.89c0.68,0.61,1.31,1.66,1.35,2.53
			c0.12,2.65,0,5.31-0.12,7.96c-0.11,2.41,0.83,4.21,2.75,5.61c5.21,3.81,10.41,7.62,16.16,10.64c5.49,2.89,11.29,4.58,17.48,4.86
			c0.41,0.02,0.97-0.04,1.23-0.29c0.89-0.86,1.82-1.74,2.48-2.77c3.12-4.92,6.2-9.88,9.22-14.86c1.75-2.89,3.59-5.83,3.85-9.28
			c0.24-3.18,0.05-6.4-0.06-9.59c-0.01-0.32-0.75-0.62-1.15-0.93c-0.1,0.24-0.21,0.48-0.31,0.73c-0.23,0.58-0.29,1.32-0.7,1.7
			c-0.69,0.63-1.59,1.42-2.39,1.42c-0.68,0-1.62-0.91-1.97-1.65c-0.33-0.7-0.07-1.69-0.02-2.54c0.03-0.53,0.16-1.06,0.25-1.58
			c-0.59,0.09-1.17,0.17-1.76,0.27c-0.12,0.02-0.24,0.12-0.35,0.11c-0.27-0.02-0.54-0.08-0.81-0.13c0.17-0.23,0.28-0.59,0.51-0.67
			c2.7-1.02,5.54-1.41,8.23-0.43c1.58,0.58,1.63-0.09,2.01-1.12c0.35-0.94,0.12-1.37-0.72-1.88c-2.45-1.5-5.15-1.79-7.91-2.04
			c-0.2-0.02-0.39-0.13-0.57-0.29c-0.74-0.64-0.77-1.82,0-2.43c0.11-0.09,0.23-0.16,0.36-0.2C95.61,38.12,98.23,38.39,101.03,39.38z
			 M46.64,71.5c0.05-0.15,0.01-0.08,0.01-0.02c-0.37,8.13-0.71,16.25-1.14,24.37c-0.07,1.37,0.28,2.41,1.25,3.31
			c0.6,0.56,1.16,1.18,1.81,1.66c8.11,5.96,17.23,6.97,26.86,5.4c0.09-0.02,0.25-0.54,0.15-0.71c-2.6-4.84-3.5-9.97-2.32-15.33
			c0.33-1.5,0.21-1.89-1.25-2.47c-6.78-2.67-12.95-6.45-18.66-10.99C51.13,74.96,48.87,73.23,46.64,71.5z M43.23,55.7
			c-0.77-2.42-0.52-3.93,1.29-5.68c1.42-1.38,1.77-3.04,1.4-4.91c-0.06-0.3-0.11-0.79-0.28-0.84c-2.29-0.72-4.57-1.57-6.93-1.95
			c-0.91-0.15-2.14,0.63-2.95,1.31c-0.67,0.56-0.99,1.58-1.39,2.43c-0.72,1.55-1.64,3.08-1.28,4.88c0.36,1.82,0.68,3.66,1.31,5.39
			c0.65,1.79,1.32,3.68,3.29,4.59c0.85,0.4,1.67,0.87,2.48,1.36c0.67,0.41,1.17,0.58,1.32-0.47c0.06-0.41,0.17-0.84,0.37-1.2
			c0.2-0.36,0.55-0.91,0.83-0.91c0.41,0,0.89,0.35,1.2,0.68c0.27,0.29,0.34,0.76,0.53,1.14c0.3,0.58,0.64,1.14,0.96,1.7
			c0.1-0.63,0.25-1.26,0.3-1.9c0.08-1.04,0.16-2.09,0.09-3.12c-0.03-0.39-0.48-0.75-0.75-1.12c0,0-0.14,0.12-0.23,0.15
			c-0.42,0.15-1.05,0.53-1.23,0.38c-0.9-0.74-1.67-1.64-2.53-2.44c-0.17-0.16-0.72-0.25-0.78-0.16c-0.96,1.47-2.41,0.94-3.5,0.57
			c-0.83-0.29-1.91-1.32-1.99-2.11c-0.39-3.97,1.49-7.12,4.2-9.83c0.16-0.16,0.58-0.07,0.88-0.09c-0.08,0.27-0.08,0.61-0.25,0.8
			c-1.85,2.04-3.01,4.4-3.54,7.09c-0.34,1.72,0.8,2.99,2.53,2.61c0.71-0.16,1.37-0.56,2.06-0.83c0.88-0.35,1.51-0.3,1.77,0.82
			C42.52,54.63,42.94,55.15,43.23,55.7z M42.82,61.65c-0.09,0.01-0.17,0.02-0.26,0.03c-0.19,1.14-0.38,2.27-0.55,3.41
			c-0.03,0.22,0.01,0.66,0.03,0.66c0.64,0.04,1.28,0.06,1.91,0c0.07-0.01,0.2-0.51,0.12-0.73C43.69,63.88,43.25,62.77,42.82,61.65z
			 M99.05,48.08c-0.02,0.03-0.04,0.05-0.06,0.08c0.43,0.26,0.86,0.54,1.3,0.78c0.11,0.06,0.29,0,0.43,0
			C100.16,48.64,99.61,48.36,99.05,48.08z"/>
		<path class="st0" d="M64.36,32.18c-0.19-0.01-0.37-0.2-0.56-0.31c0.18-0.14,0.35-0.32,0.56-0.42c2.49-1.29,5.19-1.34,7.91-1.29
			c3.94,0.07,7.42,1.43,10.46,3.92c1.05,0.86,2.01,1.84,1.78,3.36c-0.07,0.45-0.35,1.05-0.69,1.21c-0.31,0.14-0.93-0.15-1.28-0.42
			c-2.96-2.27-5.73-4.89-9.66-5.41c-1.84-0.24-3.69-0.45-5.53-0.67C67.11,32.12,65.34,32.25,64.36,32.18z"/>
		<path class="st0" d="M77.18,41.54c-1.32-0.7-2.59-1.54-3.98-2.06c-1.22-0.45-2.58-0.55-3.85-0.92c1.9-0.65,3.71-0.18,5.49,0.4
			c0.72,0.24,1.39,0.64,2.06,1.03c1.71,0.99,1.59,2.76,1.81,4.38c0.02,0.15-0.17,0.32-0.27,0.49c-0.15-0.17-0.36-0.32-0.45-0.52
			c-0.25-0.53-0.44-1.08-0.61-1.5c-0.72,1.4-1.26,2.81-2.12,4.01c-1.11,1.56-2.76,1.33-3.71-0.33c-1.05-1.84-0.59-3.58,0.25-5.33
			c0.05-0.11-0.2-0.53-0.3-0.53c-2.13,0.02-4.27,0.08-6.4,0.12c-0.21,0-0.42-0.06-0.62-0.2c4.11-0.92,8.19-1.55,12.12,0.7
			c0.19,0.11,0.39,0.17,0.59,0.26c0.02,0.08,0.04,0.17,0.05,0.25c0.01-0.01,0.03-0.03,0.04-0.03c0.01,0,0.02,0,0.03,0
			c-0.03,0.01-0.05,0.02-0.08,0.03C77.22,41.7,77.2,41.62,77.18,41.54z"/>
		<path class="st0" d="M75.21,69.82c-1.65-0.07-3.16-0.25-4.16-1.76c-0.03-0.04-0.23,0.05-0.34,0.04c-0.25-0.02-0.66,0-0.7-0.11
			c-0.11-0.29-0.2-0.76-0.05-0.94c0.38-0.47,0.89-0.83,1.38-1.2c0.13-0.1,0.39-0.15,0.53-0.09c0.11,0.05,0.21,0.36,0.16,0.47
			c-0.78,1.63,0.6,1.73,1.47,1.83c3.26,0.39,6.56,0.46,9.79,0.99c2.06,0.34,4.02,1.26,6.01,1.94c0.44,0.15,0.85,0.4,1.29,0.56
			c0.59,0.22,1.14,0.52,0.63,1.2c-0.21,0.28-0.86,0.5-1.15,0.38c-1.45-0.62-2.79-1.52-4.27-2.03c-1.45-0.51-3.02-0.7-4.55-0.98
			C81.05,70.1,77.21,69.91,75.21,69.82z"/>
		<path class="st0" d="M92.32,56.69c-0.19,2.41-0.84,4.04-2.39,5.14c-0.28,0.2-1.08,0.01-1.41-0.27c-0.51-0.44-0.51-0.94,0.29-1.35
			c2.14-1.09,2.46-2.23,1.64-4.43c-0.33-0.89-0.41-1.88-0.54-2.83c-0.02-0.17,0.18-0.45,0.35-0.53c0.12-0.05,0.46,0.11,0.52,0.25
			C91.37,54.17,91.93,55.66,92.32,56.69z"/>
		<path class="st0" d="M88.93,75.18c-1.68,1.13-3.32,0.68-4.83,0.32c-2.44-0.59-4.81-1.45-7.18-2.28c-0.33-0.12-0.5-0.69-0.75-1.05
			c0.35,0.06,0.73,0.05,1.04,0.2c3.41,1.64,7.05,2.27,10.77,2.6C88.25,74.99,88.51,75.08,88.93,75.18z"/>
		<path class="st0" d="M43.02,48.66c-0.54,1.24-0.91,2.31-1.49,3.26c-0.16,0.26-0.93,0.14-1.42,0.2c0.04-0.4-0.07-0.93,0.15-1.19
			c1.49-1.79,1.59-2.86,0.39-4.91c-0.14-0.24-0.13-0.56-0.2-0.84c0.31,0.12,0.78,0.15,0.92,0.38C41.97,46.56,42.47,47.6,43.02,48.66
			z"/>
	</g>
</g>
</svg>
