<?xml version="1.0" encoding="utf-8"?>
<!-- Generator: Adobe Illustrator 25.0.0, SVG Export Plug-In . SVG Version: 6.00 Build 0)  -->
<svg version="1.1" id="redefine-logo" xmlns="http://www.w3.org/2000/svg" xmlns:xlink="http://www.w3.org/1999/xlink" x="0px" y="0px"
	 viewBox="0 0 512 512" style="enable-background:new 0 0 512 512;" xml:space="preserve">
<style type="text/css">
	.st0{fill:#FFFFFF;}
	.st1{clip-path:url(#SVGID_2_);fill:url(#SVGID_3_);}
	.st2{opacity:0.1;clip-path:url(#SVGID_2_);fill:#9E9E9F;}
	.st3{opacity:0.3;clip-path:url(#SVGID_2_);fill:#FFFFFF;}
	.st4{opacity:0.1;clip-path:url(#SVGID_2_);fill:#FFFFFF;}
	.st5{opacity:0.29;clip-path:url(#SVGID_2_);fill:#FFFFFF;}
	.st6{opacity:0.5;clip-path:url(#SVGID_2_);fill:#FFFFFF;}
	.st7{clip-path:url(#SVGID_2_);fill:url(#SVGID_4_);}
	.st8{clip-path:url(#SVGID_6_);}
	.st9{fill:url(#SVGID_7_);}
	.st10{opacity:0.1;fill:#9E9E9F;}
	.st11{opacity:0.3;fill:#FFFFFF;}
	.st12{opacity:0.1;fill:#FFFFFF;}
	.st13{opacity:0.29;fill:#FFFFFF;}
	.st14{opacity:0.5;fill:#FFFFFF;}
	.st15{clip-path:url(#SVGID_9_);}
	.st16{clip-path:url(#SVGID_11_);}
	.st17{fill:url(#SVGID_12_);}
	.st18{opacity:0.6;clip-path:url(#SVGID_14_);}
	.st19{opacity:0.6;}
	.st20{clip-path:url(#SVGID_16_);}
	.st21{fill:url(#SVGID_17_);}
	.st22{fill:#0B3581;}
	.st23{clip-path:url(#SVGID_19_);}
	.st24{fill:none;stroke:#87C4FC;stroke-width:5.0419;stroke-miterlimit:10;}
	.st25{fill:#87C4FC;}
	.st26{clip-path:url(#SVGID_21_);}
	.st27{clip-path:url(#SVGID_23_);}
	.st28{clip-path:url(#SVGID_25_);}
	.st29{clip-path:url(#SVGID_29_);}
	.st30{fill:none;stroke:#87C4FC;stroke-width:4.6867;stroke-miterlimit:10;}
	.st31{clip-path:url(#SVGID_33_);}
	.st32{clip-path:url(#SVGID_35_);}
	.st33{clip-path:url(#SVGID_39_);}
	.st34{fill:none;stroke:#87C4FC;stroke-width:2.7839;stroke-miterlimit:10;}
	.st35{clip-path:url(#SVGID_43_);}
	.st36{clip-path:url(#SVGID_45_);}
	.st37{opacity:0.5;}
	.st38{clip-path:url(#SVGID_49_);}
	.st39{fill:none;stroke:#87C4FC;stroke-width:3.8973;stroke-miterlimit:10;}
	.st40{clip-path:url(#SVGID_53_);}
	.st41{clip-path:url(#SVGID_55_);}
	.st42{clip-path:url(#SVGID_59_);}
	.st43{clip-path:url(#SVGID_63_);}
	.st44{clip-path:url(#SVGID_65_);}
	.st45{clip-path:url(#SVGID_69_);}
	.st46{clip-path:url(#SVGID_73_);}
	.st47{clip-path:url(#SVGID_75_);}
	.st48{clip-path:url(#SVGID_77_);}
	.st49{fill:url(#SVGID_78_);}
	.st50{clip-path:url(#SVGID_82_);}
	.st51{clip-path:url(#SVGID_86_);}
	.st52{clip-path:url(#SVGID_88_);}
	.st53{clip-path:url(#SVGID_92_);}
	.st54{clip-path:url(#SVGID_96_);}
	.st55{clip-path:url(#SVGID_98_);}
	.st56{clip-path:url(#SVGID_100_);}
	.st57{fill:url(#SVGID_101_);}
	.st58{clip-path:url(#SVGID_105_);}
	.st59{clip-path:url(#SVGID_109_);}
	.st60{clip-path:url(#SVGID_111_);}
	.st61{clip-path:url(#SVGID_115_);}
	.st62{clip-path:url(#SVGID_119_);}
	.st63{clip-path:url(#SVGID_121_);}
	.st64{clip-path:url(#SVGID_123_);}
	.st65{fill:url(#SVGID_124_);}
	.st66{clip-path:url(#SVGID_128_);}
	.st67{clip-path:url(#SVGID_132_);}
	.st68{clip-path:url(#SVGID_134_);}
	.st69{clip-path:url(#SVGID_136_);}
	.st70{fill:url(#SVGID_137_);}
	.st71{clip-path:url(#SVGID_141_);}
	.st72{clip-path:url(#SVGID_145_);}
	.st73{clip-path:url(#SVGID_147_);}
	.st74{clip-path:url(#SVGID_151_);}
	.st75{clip-path:url(#SVGID_155_);}
	.st76{clip-path:url(#SVGID_157_);}
	.st77{clip-path:url(#SVGID_163_);}
	.st78{fill:#17274A;}
	.st79{fill:#08142E;}
	.st80{enable-background:new    ;}
	.st81{fill:url(#SVGID_164_);}
	.st82{fill:url(#SVGID_165_);}
	.st83{fill:#D7D7D8;}
	.st84{fill:url(#SVGID_166_);}
	.st85{fill:url(#SVGID_167_);}
	.st86{fill:#E0DBE4;}
	.st87{fill:url(#SVGID_168_);}
	.st88{fill:#E2DDE6;}
	.st89{fill:#C8C9C9;}
	.st90{fill:url(#SVGID_169_);}
	.st91{fill:url(#SVGID_170_);}
	.st92{fill:#F5F5F5;}
	.st93{fill:#FBFCFC;}
	.st94{fill:url(#SVGID_171_);}
	.st95{fill:url(#SVGID_172_);}
	.st96{fill:#5E6466;}
	.st97{opacity:0.15;fill:#FFFFFF;}
	.st98{fill:url(#SVGID_175_);}
	.st99{fill:url(#SVGID_176_);}
	.st100{fill:url(#SVGID_177_);}
	.st101{fill:url(#SVGID_178_);}
	.st102{fill:url(#SVGID_181_);}
	.st103{fill:url(#SVGID_182_);}
	.st104{fill:url(#SVGID_183_);}
	.st105{fill:url(#SVGID_184_);}
	.st106{fill:url(#SVGID_185_);}
	.st107{fill:url(#SVGID_186_);}
	.st108{fill:url(#SVGID_187_);}
	.st109{fill:url(#SVGID_188_);}
	.st110{fill:url(#SVGID_189_);}
	.st111{fill:url(#SVGID_190_);}
	.st112{fill:url(#SVGID_191_);}
	.st113{fill:#858585;}
	.st114{fill:#142747;}
	.st115{fill:#06152C;}
	.st116{fill:#5F5F5F;}
	.st117{fill:url(#SVGID_192_);}
	.st118{fill:#AFAEBE;}
	.st119{fill:url(#SVGID_193_);}
	.st120{fill:url(#SVGID_194_);}
	.st121{fill:url(#SVGID_195_);}
	.st122{fill:url(#SVGID_196_);}
	.st123{fill:url(#SVGID_199_);}
	.st124{fill:url(#SVGID_200_);}
	.st125{fill:url(#SVGID_201_);}
	.st126{fill:#2E4D9E;}
	.st127{fill:url(#SVGID_204_);}
	.st128{fill:url(#SVGID_205_);}
	.st129{fill:url(#SVGID_206_);}
	.st130{clip-path:url(#SVGID_208_);}
	.st131{clip-path:url(#SVGID_210_);}
	.st132{fill:url(#SVGID_211_);}
	.st133{clip-path:url(#SVGID_215_);}
	.st134{clip-path:url(#SVGID_219_);}
	.st135{clip-path:url(#SVGID_221_);}
	.st136{clip-path:url(#SVGID_223_);}
	.st137{opacity:0.6;clip-path:url(#SVGID_223_);}
	.st138{clip-path:url(#SVGID_225_);}
	.st139{fill:url(#SVGID_226_);}
	.st140{clip-path:url(#SVGID_230_);}
	.st141{clip-path:url(#SVGID_234_);}
	.st142{clip-path:url(#SVGID_236_);}
</style>
<g>
	<polygon class="st22" points="223.08,419.12 76.53,269.72 0.5,269.71 0.5,419.12 63.13,419.12 63.13,319.88 160.46,419.12 	"/>
	<g>
		<path class="st22" d="M390.15,422.43c-49.94,0-95.44-25.39-121.72-67.91l47.17-29.16c16.1,26.05,43.97,41.6,74.55,41.6
			c28.25,0,54.92-13.75,71.35-36.79l45.16,32.2C479.83,399.98,436.28,422.43,390.15,422.43z"/>
	</g>
	<g>
		<defs>
			<path id="SVGID_18_" d="M77.81,253.62H15.18V108.48h62.63C77.81,143.48,77.81,221.07,77.81,253.62z"/>
		</defs>
		<clipPath id="SVGID_2_">
			<use xlink:href="#SVGID_18_"  style="overflow:visible;"/>
		</clipPath>
		<g style="clip-path:url(#SVGID_2_);">
			<line class="st24" x1="65.94" y1="62.25" x2="-69.8" y2="197.99"/>
			<line class="st24" x1="74.1" y1="70.41" x2="-61.64" y2="206.15"/>
			<line class="st24" x1="82.26" y1="78.57" x2="-53.48" y2="214.31"/>
			<line class="st24" x1="90.42" y1="86.73" x2="-45.32" y2="222.47"/>
			<line class="st24" x1="98.58" y1="94.89" x2="-37.16" y2="230.63"/>
			<line class="st24" x1="106.74" y1="103.05" x2="-29" y2="238.79"/>
			<line class="st24" x1="114.9" y1="111.21" x2="-20.84" y2="246.95"/>
			<line class="st24" x1="123.06" y1="119.37" x2="-12.68" y2="255.11"/>
			<line class="st24" x1="131.22" y1="127.53" x2="-4.52" y2="263.27"/>
			<line class="st24" x1="139.38" y1="135.69" x2="3.64" y2="271.43"/>
			<line class="st24" x1="147.54" y1="143.85" x2="11.81" y2="279.59"/>
			<line class="st24" x1="155.7" y1="152.01" x2="19.97" y2="287.75"/>
			<line class="st24" x1="163.86" y1="160.17" x2="28.13" y2="295.91"/>
			<line class="st24" x1="172.03" y1="168.33" x2="36.29" y2="304.07"/>
		</g>
	</g>
	<g>
		<path class="st25" d="M395,398.21c-49.94,0-95.44-25.39-121.72-67.91l47.17-29.16c16.1,26.05,43.97,41.6,74.55,41.6
			c28.25,0,54.92-13.75,71.35-36.79l45.16,32.2C484.69,375.76,441.13,398.21,395,398.21z"/>
	</g>
	<g>
		<defs>
			<path id="SVGID_20_" d="M273.28,330.3c-13.93-22.54-21.29-48.51-21.29-75.11c0-78.86,64.16-143.01,143.01-143.01
				c43.64,0,84.34,19.55,111.65,53.64l-43.28,34.68c-16.73-20.88-41.65-32.86-68.37-32.86c-48.28,0-87.55,39.28-87.55,87.55
				c0,16.29,4.5,32.18,13.01,45.95L273.28,330.3z"/>
		</defs>
		<clipPath id="SVGID_3_">
			<use xlink:href="#SVGID_20_"  style="overflow:visible;"/>
		</clipPath>
		<g style="clip-path:url(#SVGID_3_);">
			<line class="st24" x1="407.12" y1="41.86" x2="184.78" y2="264.2"/>
			<line class="st24" x1="415.28" y1="50.02" x2="192.94" y2="272.36"/>
			<line class="st24" x1="423.44" y1="58.18" x2="201.1" y2="280.52"/>
			<line class="st24" x1="431.6" y1="66.34" x2="209.27" y2="288.68"/>
			<line class="st24" x1="439.77" y1="74.5" x2="217.43" y2="296.84"/>
			<line class="st24" x1="447.93" y1="82.66" x2="225.59" y2="305"/>
			<line class="st24" x1="456.09" y1="90.82" x2="233.75" y2="313.16"/>
			<line class="st24" x1="464.25" y1="98.98" x2="241.91" y2="321.32"/>
			<line class="st24" x1="472.41" y1="107.14" x2="250.07" y2="329.48"/>
			<line class="st24" x1="480.57" y1="115.3" x2="258.23" y2="337.64"/>
			<line class="st24" x1="488.73" y1="123.46" x2="266.39" y2="345.8"/>
			<line class="st24" x1="496.89" y1="131.62" x2="274.55" y2="353.96"/>
			<line class="st24" x1="505.05" y1="139.78" x2="282.71" y2="362.12"/>
			<line class="st24" x1="513.21" y1="147.94" x2="290.87" y2="370.28"/>
		</g>
	</g>
	<g>
		<defs>
			<polygon id="SVGID_22_" points="93.47,253.62 77.96,253.62 77.81,207.73 175.12,108.48 237.77,108.48 			"/>
		</defs>
		<clipPath id="SVGID_4_">
			<use xlink:href="#SVGID_22_"  style="overflow:visible;"/>
		</clipPath>
		<g style="clip-path:url(#SVGID_4_);">
			<line class="st24" x1="236.91" y1="54.46" x2="14.57" y2="276.8"/>
			<line class="st24" x1="245.08" y1="62.62" x2="22.74" y2="284.96"/>
			<line class="st24" x1="253.24" y1="70.78" x2="30.9" y2="293.12"/>
			<line class="st24" x1="261.4" y1="78.94" x2="39.06" y2="301.28"/>
		</g>
	</g>
	<polygon class="st25" points="237.77,402.77 91.2,253.37 15.18,253.36 15.18,402.77 77.81,402.77 77.81,303.53 175.13,402.77 	"/>
</g>
</svg>
